<svg width="100" height="101" viewBox="0 0 100 101" fill="none" xmlns="http://www.w3.org/2000/svg">
<g filter="url(#filter0_d_2944_85242)">
<rect x="4" y="3.04297" width="92" height="92" rx="46" fill="#00A1E0"/>
<path d="M44.2846 30.2481C46.4818 27.9719 49.5431 26.5341 52.9188 26.5341C57.4189 26.5341 61.3177 29.0456 63.4101 32.7606C65.2156 31.9498 67.2298 31.5048 69.3489 31.5048C77.46 31.5048 84 38.1239 84 46.2874C84 54.4509 77.4333 61.0682 69.3489 61.0682C68.356 61.0682 67.387 60.9634 66.4714 60.7804C64.6401 64.0504 61.1338 66.2752 57.1036 66.2752C55.4304 66.2752 53.8335 65.8826 52.4206 65.2024C50.5635 69.5719 46.2198 72.658 41.17 72.658C35.9115 72.658 31.4114 69.3356 29.684 64.6508C28.9178 64.808 28.1376 64.8869 27.3554 64.8861C21.0765 64.8861 16 59.7582 16 53.4002C16 49.1713 18.2762 45.4462 21.6777 43.4578C20.9717 41.8618 20.5791 40.0839 20.5791 38.1993C20.5552 30.9551 26.494 25.042 33.7658 25.042C35.8019 25.0386 37.8112 25.5069 39.636 26.4101C41.4608 27.3133 43.0516 28.627 44.2837 30.2481" fill="white"/>
<path d="M24.2167 51.2927L24.5112 50.5165C24.5648 50.3829 24.6448 50.4365 24.6993 50.4628L24.9402 50.6228C25.7701 51.1591 26.5473 51.1591 26.7881 51.1591C27.4044 51.1591 27.8043 50.8373 27.8043 50.3829V50.3565C27.8043 49.8748 27.2153 49.6885 26.519 49.4721L26.3591 49.4184C25.4219 49.1503 24.4039 48.7504 24.4039 47.5705V47.5442C24.4039 46.4198 25.3147 45.6153 26.6263 45.6153H26.7599C27.5362 45.6153 28.2597 45.8298 28.7951 46.178C28.8487 46.2043 28.9023 46.2579 28.8751 46.3379L28.5806 47.1142C28.5269 47.2478 28.3924 47.1678 28.3924 47.1678C27.9106 46.8996 27.188 46.7124 26.5717 46.7124C26.0091 46.7124 25.6609 47.0069 25.6609 47.4087V47.435C25.6609 47.8904 26.2772 48.1031 26.9735 48.3195L27.1071 48.3458C28.0442 48.6403 29.036 49.0421 29.036 50.1937V50.2201C29.036 51.4527 28.1515 52.2016 26.7326 52.2016C26.0364 52.2016 25.3683 52.0944 24.6438 51.7199C24.5102 51.6399 24.3757 51.5863 24.2421 51.479C24.2157 51.4254 24.1621 51.399 24.2157 51.2908L24.2167 51.2927ZM45.1047 51.2927L45.3992 50.5165C45.4528 50.3829 45.5592 50.4365 45.5874 50.4628L45.8283 50.6228C46.6581 51.1591 47.4353 51.1591 47.6762 51.1591C48.2925 51.1591 48.6924 50.8373 48.6924 50.3829V50.3565C48.6924 49.8748 48.1034 49.6885 47.4071 49.4721L47.2471 49.4184C46.31 49.1503 45.2919 48.7504 45.2919 47.5705V47.5442C45.2919 46.4198 46.2027 45.6153 47.5144 45.6153H47.648C48.4242 45.6153 49.1478 45.8298 49.6831 46.178C49.7368 46.2043 49.7904 46.2579 49.7631 46.3379L49.4686 47.1142C49.415 47.2478 49.2804 47.1678 49.2804 47.1678C48.7987 46.8996 48.0761 46.7124 47.4598 46.7124C46.8971 46.7124 46.549 47.0069 46.549 47.4087V47.435C46.549 47.8904 47.1653 48.1031 47.8615 48.3195L47.9952 48.3458C48.9323 48.6403 49.924 49.0421 49.924 50.1937V50.2201C49.924 51.4527 49.0396 52.2016 47.6207 52.2016C46.9244 52.2016 46.2564 52.0944 45.5319 51.7199C45.3983 51.6399 45.2637 51.5863 45.1301 51.479C45.1301 51.4254 45.0765 51.399 45.1038 51.2908L45.1047 51.2927ZM60.5826 47.6232C60.6898 48.025 60.7707 48.4531 60.7707 48.9085C60.7707 49.3639 60.7171 49.7929 60.5826 50.1937C60.4753 50.5955 60.2881 50.9436 60.0462 51.2287C59.7985 51.526 59.4873 51.7639 59.1354 51.925C58.761 52.085 58.3319 52.1659 57.8502 52.1659C57.3684 52.1659 56.9394 52.0859 56.5649 51.925C56.1904 51.7641 55.8969 51.5232 55.6541 51.2287C55.4114 50.9342 55.226 50.5861 55.1178 50.1937C55.0096 49.8014 54.9296 49.3639 54.9296 48.9085C54.9296 48.4531 54.9832 48.024 55.1178 47.6232C55.2251 47.2214 55.4123 46.8733 55.6541 46.5882C55.9018 46.2909 56.2131 46.053 56.5649 45.8919C56.9705 45.7157 57.4079 45.6244 57.8502 45.6238C58.3319 45.6238 58.761 45.7038 59.1354 45.8919C59.5099 46.0519 59.8035 46.2937 60.0462 46.5882C60.289 46.8827 60.4743 47.2308 60.5826 47.6232ZM59.3782 48.8821C59.3782 48.1859 59.2446 47.6495 59.0037 47.2751C58.7629 46.9006 58.3611 46.7124 57.8521 46.7124C57.3157 46.7124 56.9413 46.9006 56.7004 47.2751C56.4595 47.6495 56.3259 48.1859 56.3259 48.8821C56.3259 49.5784 56.4595 50.1147 56.7004 50.5155C56.9413 50.89 57.3167 51.0782 57.8521 51.0782C58.3874 51.0782 58.7629 50.89 59.0037 50.5155C59.2719 50.1411 59.3782 49.5784 59.3782 48.8821ZM70.3839 50.89L70.6784 51.6935C70.7048 51.8008 70.6248 51.8272 70.6248 51.8272C70.1694 52.0153 69.5541 52.1217 68.9378 52.1217C67.9028 52.1217 67.1171 51.8272 66.5818 51.2372C66.0464 50.6473 65.7782 49.8447 65.7782 48.8539C65.7782 48.3985 65.8319 47.9695 65.9664 47.5686C66.101 47.1678 66.2882 46.8187 66.5554 46.5336C66.823 46.2348 67.152 45.9973 67.5198 45.8374C67.9435 45.6585 68.3989 45.5673 68.8587 45.5692C69.154 45.5704 69.449 45.5883 69.7422 45.6228C70.0104 45.6765 70.3849 45.7564 70.5458 45.8374C70.5721 45.8374 70.653 45.891 70.6258 45.971L70.3312 46.7745C70.2776 46.9081 70.1976 46.8545 70.1976 46.8545C69.7959 46.7209 69.4214 46.6663 68.9387 46.6663C68.3497 46.6663 67.9037 46.8545 67.6262 47.2553C67.3317 47.6298 67.1708 48.1398 67.1708 48.836C67.1708 49.5859 67.3589 50.1213 67.6788 50.4694C67.9988 50.8176 68.4551 50.9775 69.0432 50.9775C69.284 50.9775 69.4986 50.9512 69.6858 50.9239C69.873 50.8966 70.0603 50.8439 70.2485 50.7639C70.2221 50.8176 70.3284 50.7903 70.3821 50.8975L70.3839 50.89ZM76.4622 47.3823C76.7303 48.2931 76.5958 49.0694 76.5694 49.123C76.5694 49.2303 76.4622 49.2303 76.4622 49.2303H72.4191C72.4455 49.8466 72.5791 50.2653 72.9009 50.5692C73.1954 50.8637 73.6508 51.0509 74.2934 51.0509C75.2578 51.0509 75.6577 50.8627 75.9541 50.7564C75.9541 50.7564 76.0614 50.7301 76.114 50.8364L76.3822 51.5863C76.4358 51.7199 76.3822 51.7462 76.3559 51.7745C76.115 51.9081 75.4996 52.1762 74.3207 52.1762C73.758 52.1762 73.2499 52.0963 72.8482 51.9354C72.4464 51.7745 72.0983 51.5609 71.832 51.2673C71.5657 50.9738 71.3766 50.6247 71.243 50.2511C71.1094 49.8494 71.0548 49.4213 71.0548 48.9659C71.0548 48.5105 71.1084 48.0814 71.243 47.6806C71.3503 47.2788 71.5375 46.9307 71.7793 46.6456C72.0211 46.3605 72.342 46.1093 72.7164 45.9493C73.0909 45.7612 73.5463 45.6812 74.0553 45.6812C74.4835 45.6812 74.8852 45.7612 75.207 45.922C75.4479 46.0293 75.7151 46.2165 75.9833 46.5111C76.1169 46.6183 76.3577 47.0191 76.465 47.3955L76.4622 47.3823ZM72.4445 48.2386H75.3096C75.2832 47.8641 75.2023 47.5423 75.0414 47.2741C74.8005 46.8996 74.4524 46.6851 73.917 46.6851C73.3817 46.6851 73.0062 46.8996 72.7654 47.2741C72.6054 47.515 72.5245 47.8368 72.4436 48.2386H72.4445ZM44.1403 47.3823C44.4084 48.2931 44.2739 49.0694 44.2739 49.123C44.2739 49.2303 44.1666 49.2303 44.1666 49.2303H40.1236C40.1499 49.8466 40.2835 50.2653 40.6053 50.5692C40.8998 50.8637 41.3552 51.0509 41.9978 51.0509C42.9623 51.0509 43.3622 50.8627 43.6585 50.7564C43.6585 50.7564 43.7658 50.7301 43.8185 50.8364L44.0866 51.5863C44.1403 51.7199 44.0866 51.7462 44.0603 51.7745C43.8194 51.9081 43.2041 52.1762 42.0251 52.1762C41.4625 52.1762 40.9544 52.0963 40.5526 51.9354C40.1508 51.7745 39.8027 51.5609 39.5364 51.2673C39.2702 50.9738 39.081 50.6247 38.9474 50.2511C38.8138 49.8494 38.7593 49.4213 38.7593 48.9659C38.7593 48.5105 38.8129 48.0814 38.9474 47.6806C39.0547 47.2788 39.2419 46.9307 39.4837 46.6456C39.7256 46.3605 40.0464 46.1093 40.4209 45.9493C40.7954 45.7612 41.2508 45.6812 41.7598 45.6812C42.1879 45.6812 42.5897 45.7612 42.9115 45.922C43.1523 46.0293 43.4195 46.2165 43.6877 46.5111C43.795 46.6183 44.0622 47.0191 44.1431 47.3955L44.1403 47.3823ZM40.1226 48.2386H43.015C42.9886 47.8641 42.9077 47.5423 42.7468 47.2741C42.5059 46.8996 42.1578 46.6851 41.6224 46.6851C41.087 46.6851 40.7116 46.8996 40.4708 47.2741C40.2826 47.515 40.2026 47.8368 40.1226 48.2386ZM33.0263 48.024L33.6944 48.104V47.944C33.6944 47.4077 33.5871 47.1405 33.3726 46.9796C33.1581 46.8187 32.8099 46.7115 32.3818 46.7115C32.3818 46.7115 31.391 46.7115 30.6148 47.1132C30.5884 47.1396 30.5612 47.1396 30.5612 47.1396C30.5612 47.1396 30.4539 47.1659 30.4276 47.0859L30.1331 46.3097C30.0794 46.2024 30.1594 46.1497 30.1594 46.1497C30.5339 45.8552 31.392 45.6943 31.392 45.6943C31.6865 45.6407 32.1682 45.5871 32.4627 45.5871C33.2663 45.5871 33.8816 45.7753 34.3107 46.1497C34.7397 46.5242 34.9533 47.1142 34.9533 47.944V51.639C34.9533 51.639 34.9533 51.7462 34.8733 51.7726C34.8733 51.7726 34.7134 51.8262 34.5788 51.8526L33.5626 52.0407C33.1609 52.1207 32.7591 52.148 32.3301 52.148C31.9283 52.148 31.5802 52.1217 31.2593 52.0407C30.9385 51.9598 30.6703 51.8526 30.4294 51.6926C30.2149 51.5327 30.0277 51.3181 29.8931 51.05C29.7595 50.8091 29.7049 50.4873 29.7049 50.1392C29.7049 49.791 29.7849 49.4711 29.9195 49.202C30.054 48.9329 30.2676 48.7203 30.5085 48.534C30.7493 48.3477 31.0448 48.2395 31.3383 48.1322C31.6601 48.0523 31.981 47.9986 32.3291 47.9986L33.0254 48.025L33.0263 48.024ZM31.4193 50.8627C31.4193 50.8627 31.7937 51.1572 32.5973 51.1036C33.1863 51.0773 33.6953 50.97 33.6953 50.97V49.1221C33.6953 49.1221 33.1872 49.0421 32.5973 49.0421C31.7674 49.0421 31.4193 49.3366 31.4193 49.3366C31.1784 49.4965 31.0711 49.7647 31.0711 50.1128C31.0673 50.3 31.1134 50.4848 31.2047 50.6482C31.2311 50.7018 31.2584 50.7555 31.4193 50.8627ZM65.5609 45.9625C65.5345 46.0698 65.32 46.6305 65.2664 46.8187C65.24 46.8987 65.1864 46.926 65.1064 46.926C65.1064 46.926 64.8656 46.8724 64.651 46.8724C64.4699 46.8765 64.2901 46.9034 64.1157 46.9523C63.9275 47.006 63.7675 47.1123 63.6076 47.2468C63.4476 47.3814 63.3394 47.595 63.2594 47.8358C63.1794 48.0767 63.1258 48.4785 63.1258 48.9066V51.9052C63.1258 51.9852 63.0722 52.0389 62.9922 52.0389H61.9215C61.8415 52.0389 61.7879 51.9852 61.7879 51.9052V45.8844C61.7879 45.8044 61.8415 45.7508 61.8951 45.7508H62.9301C63.0101 45.7508 63.0374 45.8044 63.0374 45.8844V46.3662C63.1973 46.1516 63.4655 45.9644 63.7054 45.8581C63.9453 45.7517 64.2417 45.6699 64.7404 45.6981C65.0086 45.7245 65.3567 45.7781 65.4085 45.8054C65.5157 45.8317 65.5684 45.859 65.5421 45.9653L65.5609 45.9625ZM55.6249 43.1774C55.6513 43.1774 55.7322 43.2311 55.7049 43.311L55.3831 44.1673C55.3568 44.2209 55.3295 44.2745 55.1949 44.2209C55.1686 44.2209 55.115 44.1945 54.9804 44.1673C54.9004 44.1409 54.7659 44.1409 54.6586 44.1409C54.4987 44.1409 54.3641 44.1673 54.2305 44.1945C54.0969 44.2218 53.9897 44.3018 53.8824 44.4091C53.7751 44.5163 53.6679 44.6499 53.5879 44.8372C53.4279 45.2653 53.3734 45.7216 53.3734 45.748H54.6586C54.7659 45.748 54.7922 45.8016 54.7922 45.8816L54.6323 46.7115C54.6059 46.8451 54.4987 46.8187 54.4987 46.8187H53.1598L52.3036 51.9871C52.1963 52.5234 52.089 52.9779 51.9554 53.3514C51.8218 53.725 51.6609 53.9941 51.4191 54.2622C51.2046 54.5031 50.9637 54.6903 50.6692 54.7703C50.401 54.8776 50.0529 54.9303 49.6784 54.9303C49.4903 54.9303 49.304 54.9303 49.0894 54.8766C48.9605 54.8569 48.8347 54.8209 48.7149 54.7694C48.6613 54.743 48.635 54.6894 48.6613 54.6094L48.9558 53.7795C49.0094 53.6723 49.0894 53.7259 49.0894 53.7259L49.304 53.8059C49.4112 53.8322 49.5185 53.8322 49.6257 53.8322C49.8139 53.8322 49.9739 53.8059 50.1075 53.7522C50.2674 53.6986 50.3756 53.5923 50.482 53.4577C50.5883 53.3232 50.6701 53.136 50.7765 52.8951C50.8754 52.5696 50.9558 52.2388 51.0173 51.9043L51.9281 46.8423H51.0437C50.9364 46.8423 50.9101 46.7886 50.9101 46.7086L51.07 45.8788C51.0964 45.7452 51.2036 45.7715 51.2036 45.7715H52.1144L52.1681 45.5033C52.3017 44.6998 52.5698 44.0845 52.9716 43.6827C53.3734 43.2809 53.9624 43.0664 54.684 43.0664C54.8986 43.0664 55.0858 43.0928 55.2467 43.12C55.354 43.0937 55.4876 43.12 55.6212 43.1737L55.6249 43.1774ZM37.5765 51.8808C37.5765 51.9608 37.5229 52.0144 37.4693 52.0144H36.3985C36.3185 52.0144 36.2913 51.9608 36.2913 51.8808V43.2847C36.2913 43.2311 36.3449 43.1511 36.3985 43.1511H37.4693C37.5492 43.1511 37.5765 43.2047 37.5765 43.2847V51.8808Z" fill="#00A1E0"/>
</g>
<defs>
<filter id="filter0_d_2944_85242" x="0" y="0.0429688" width="100" height="100" filterUnits="userSpaceOnUse" color-interpolation-filters="sRGB">
<feFlood flood-opacity="0" result="BackgroundImageFix"/>
<feColorMatrix in="SourceAlpha" type="matrix" values="0 0 0 0 0 0 0 0 0 0 0 0 0 0 0 0 0 0 127 0" result="hardAlpha"/>
<feOffset dy="1"/>
<feGaussianBlur stdDeviation="2"/>
<feColorMatrix type="matrix" values="0 0 0 0 0.0687866 0 0 0 0 0.097585 0 0 0 0 0.37981 0 0 0 0.0779552 0"/>
<feBlend mode="normal" in2="BackgroundImageFix" result="effect1_dropShadow_2944_85242"/>
<feBlend mode="normal" in="SourceGraphic" in2="effect1_dropShadow_2944_85242" result="shape"/>
</filter>
</defs>
</svg>